# xmcd CD database file
#
# Track frame offsets:
#	150
#	25163
#	41996
#	72414
#	94327
#	117710
#	134389
#	158012
#	183245
#	205565
#
# Disc length: 3016 seconds
#
# Revision: 1
# Processed by: cddbd v1.5.2PL0 Copyright (c) Steve Scherf et al.
# Submitted via: CDex 1.51
#
DISCID=8d0bc60a
DTITLE=Chet Baker - Vol.07 - My Funny Valentine
DYEAR=1900
DGENRE=Jazz
TTITLE0=Tynan Time
TTITLE1=Let's Get Lost
TTITLE2=Picture Of Heath
TTITLE3=You Don't Know What Love Is
TTITLE4=CTA
TTITLE5=Grey December
TTITLE6=To Mickey's Memory
TTITLE7=Lucius Lu
TTITLE8=Jumpin' Off A Clef
TTITLE9=Music To Dance By
EXTD=
EXTT0=
EXTT1=
EXTT2=
EXTT3=
EXTT4=
EXTT5=
EXTT6=
EXTT7=
EXTT8=
EXTT9=
PLAYORDER=
